<svg data-v-29081953="" xmlns="http://www.w3.org/2000/svg" viewBox="0 0 300 300"><!----><defs data-v-29081953=""><!----></defs><rect data-v-29081953="" fill="#F8680C" x="0" y="0" width="300px" height="300px" class="logo-background-square"></rect><defs data-v-29081953=""><!----></defs><g data-v-29081953="" id="774ee506-784b-4ae1-9eb2-2097c8cba04a" fill="#E7E7E6" transform="matrix(4.3427866937201705,0,0,4.3427866937201705,90.3707525094869,116.69082469243693)"><path d="M8.60 5.94L8.60 5.94L8.60 5.94Q8.60 7.31 7.71 8.11L7.71 8.11L7.71 8.11Q6.82 8.92 5.28 8.92L5.28 8.92L2.45 8.92L2.45 12.67L1.15 12.67L1.15 3.04L5.20 3.04L5.20 3.04Q6.82 3.04 7.71 3.80L7.71 3.80L7.71 3.80Q8.60 4.56 8.60 5.94ZM7.29 5.95L7.29 5.95L7.29 5.95Q7.29 4.09 5.04 4.09L5.04 4.09L2.45 4.09L2.45 7.89L5.10 7.89L5.10 7.89Q7.29 7.89 7.29 5.95ZM11.54 12.67L10.31 12.67L10.31 7L10.31 7Q10.31 6.22 10.27 5.28L10.27 5.28L11.43 5.28L11.43 5.28Q11.48 6.54 11.48 6.79L11.48 6.79L11.51 6.79L11.51 6.79Q11.81 5.84 12.19 5.49L12.19 5.49L12.19 5.49Q12.57 5.14 13.27 5.14L13.27 5.14L13.27 5.14Q13.51 5.14 13.77 5.21L13.77 5.21L13.77 6.34L13.77 6.34Q13.52 6.27 13.11 6.27L13.11 6.27L13.11 6.27Q12.35 6.27 11.94 6.93L11.94 6.93L11.94 6.93Q11.54 7.59 11.54 8.82L11.54 8.82L11.54 12.67ZM21.20 8.97L21.20 8.97L21.20 8.97Q21.20 10.91 20.34 11.86L20.34 11.86L20.34 11.86Q19.49 12.81 17.86 12.81L17.86 12.81L17.86 12.81Q16.24 12.81 15.42 11.82L15.42 11.82L15.42 11.82Q14.59 10.83 14.59 8.97L14.59 8.97L14.59 8.97Q14.59 5.14 17.90 5.14L17.90 5.14L17.90 5.14Q19.60 5.14 20.40 6.07L20.40 6.07L20.40 6.07Q21.20 7.01 21.20 8.97ZM19.91 8.97L19.91 8.97L19.91 8.97Q19.91 7.44 19.45 6.74L19.45 6.74L19.45 6.74Q19.00 6.05 17.92 6.05L17.92 6.05L17.92 6.05Q16.84 6.05 16.36 6.76L16.36 6.76L16.36 6.76Q15.88 7.46 15.88 8.97L15.88 8.97L15.88 8.97Q15.88 10.43 16.35 11.17L16.35 11.17L16.35 11.17Q16.83 11.90 17.85 11.90L17.85 11.90L17.85 11.90Q18.96 11.90 19.43 11.19L19.43 11.19L19.43 11.19Q19.91 10.48 19.91 8.97ZM25.70 6.17L24.25 6.17L24.25 12.67L23.02 12.67L23.02 6.17L21.98 6.17L21.98 5.28L23.02 5.28L23.02 4.44L23.02 4.44Q23.02 3.43 23.47 2.99L23.47 2.99L23.47 2.99Q23.91 2.54 24.83 2.54L24.83 2.54L24.83 2.54Q25.34 2.54 25.70 2.63L25.70 2.63L25.70 3.56L25.70 3.56Q25.39 3.51 25.15 3.51L25.15 3.51L25.15 3.51Q24.68 3.51 24.47 3.75L24.47 3.75L24.47 3.75Q24.25 3.99 24.25 4.61L24.25 4.61L24.25 5.28L25.70 5.28L25.70 6.17ZM27.84 3.71L26.61 3.71L26.61 2.53L27.84 2.53L27.84 3.71ZM27.84 12.67L26.61 12.67L26.61 5.28L27.84 5.28L27.84 12.67ZM30.96 12.67L29.73 12.67L29.73 2.53L30.96 2.53L30.96 12.67ZM39.06 9.24L33.78 9.24L33.78 9.24Q33.78 10.51 34.31 11.20L34.31 11.20L34.31 11.20Q34.84 11.89 35.85 11.89L35.85 11.89L35.85 11.89Q36.65 11.89 37.13 11.57L37.13 11.57L37.13 11.57Q37.61 11.25 37.78 10.75L37.78 10.75L38.86 11.06L38.86 11.06Q38.20 12.81 35.85 12.81L35.85 12.81L35.85 12.81Q34.21 12.81 33.35 11.83L33.35 11.83L33.35 11.83Q32.49 10.86 32.49 8.93L32.49 8.93L32.49 8.93Q32.49 7.10 33.35 6.12L33.35 6.12L33.35 6.12Q34.21 5.14 35.80 5.14L35.80 5.14L35.80 5.14Q39.06 5.14 39.06 9.07L39.06 9.07L39.06 9.24ZM33.80 8.29L37.79 8.29L37.79 8.29Q37.69 7.12 37.19 6.59L37.19 6.59L37.19 6.59Q36.70 6.05 35.78 6.05L35.78 6.05L35.78 6.05Q34.88 6.05 34.36 6.65L34.36 6.65L34.36 6.65Q33.84 7.25 33.80 8.29L33.80 8.29Z"></path></g><defs data-v-29081953=""><!----></defs><g data-v-29081953="" id="b767802c-ae46-4f65-9b32-204fe67dd741" stroke="none" fill="#E7E7E6" transform="matrix(0.7609728059432537,0,0,0.7609728059432537,23.13531872394966,111.57154821967076)"><path clip-rule="evenodd" d="M61.449 22.663c4.463 0 8.081-3.618 8.081-8.082S65.912 6.5 61.449 6.5a8.081 8.081 0 1 0 0 16.163zm0-13.918a5.836 5.836 0 1 1 0 11.673 5.837 5.837 0 1 1 0-11.673zm16.199 28.59c-1.2-7.545-7.996-13.325-16.199-13.325-4.46 0-8.494 1.717-11.449 4.489-2.955-2.772-6.99-4.489-11.45-4.489-8.218 0-15.021 5.8-16.205 13.365-.112.209-.183.528-.183 1.002V54.99a4.938 4.938 0 0 0 7.633 4.135v30.436a4.938 4.938 0 0 0 8.755 3.133 4.938 4.938 0 0 0 8.755-3.133V59.125c.217.142.448.263.687.37.086.038.176.067.264.102.191.072.387.134.588.183.089.021.177.043.268.06.289.054.583.09.887.09a4.817 4.817 0 0 0 1.153-.15c.205-.05.405-.111.601-.187.083-.031.167-.059.247-.095a4.86 4.86 0 0 0 .694-.372v30.436a4.938 4.938 0 0 0 8.754 3.133 4.938 4.938 0 0 0 8.754-3.133V59.125a4.903 4.903 0 0 0 2.694.804 4.941 4.941 0 0 0 4.938-4.945V38.351c.003-.483-.07-.807-.186-1.016zm-32.404.04c-.112.209-.183.528-.183 1.002v51.184a2.694 2.694 0 0 1-5.388 0V57.459a1.122 1.122 0 1 0-2.245 0v32.103a2.694 2.694 0 0 1-5.388 0V39.5a1.123 1.123 0 0 0-2.246 0v15.49a2.694 2.694 0 0 1-5.388 0V39.725c0-7.439 6.385-13.47 14.143-13.47 3.85 0 7.359 1.488 9.921 3.894-1.658 2.065-2.804 4.529-3.226 7.226zm7.45 17.608a2.695 2.695 0 0 1-5.388 0V39.725c0-2.94 1.009-5.652 2.694-7.867 1.686 2.215 2.694 4.927 2.694 7.867v15.258zm22.898 0a2.695 2.695 0 0 1-2.693 2.697 2.695 2.695 0 0 1-2.694-2.697V43.092a1.123 1.123 0 0 0-2.245 0v46.47a2.693 2.693 0 0 1-5.387 0V57.459a1.122 1.122 0 1 0-2.245 0v32.103a2.693 2.693 0 0 1-5.387 0v-51.21c0-.483-.072-.807-.188-1.016-.427-2.681-1.57-5.132-3.223-7.187 2.562-2.406 6.071-3.894 9.921-3.894 7.758 0 14.143 6.031 14.143 13.47v15.258zm-37.041-32.32a8.082 8.082 0 1 0 0-16.164 8.082 8.082 0 0 0 0 16.164zm0-13.918a5.836 5.836 0 1 1 .001 11.673 5.836 5.836 0 0 1-.001-11.673z"></path></g><!----></svg>